<svg xmlns="http://www.w3.org/2000/svg" preserveAspectRatio="xMidYMid" width="229" height="81" viewBox="0 0 229 81"><defs><style>.cls-1{fill:#fff;fill-rule:evenodd}</style></defs><path d="M226.944 56.515l-2.688-7.21h-9.914l-2.686 7.21h-2.023l8.888-23.864h1.558L229 56.515h-2.056zm-7.628-20.498l-4.245 11.382h8.489l-4.244-11.382zm-32.51 20.498l-6.391-10.98h-6.651v10.98h-1.905V32.651h8.719c3.65 0 7.344 2.208 7.344 6.427 0 3.739-2.854 5.671-5.43 6.238l6.513 11.199h-2.199zm-.792-17.437c0-3.105-2.818-4.519-5.436-4.519h-6.814v9.07h6.814c2.618 0 5.436-1.424 5.436-4.551zm-17.145 40.019h-2.049l-.6 1.817h-.771l1.963-5.778h.9l1.972 5.778h-.798l-.617-1.817zm-.72-2.246c-.128-.377-.214-.72-.3-1.055h-.017c-.086.344-.18.695-.291 1.046l-.566 1.672h1.74l-.566-1.663zm-8.183 1.8c-.223 0-.429-.009-.6-.051v2.314h-.746v-5.709c.36-.06.831-.111 1.431-.111.738 0 1.278.171 1.621.48.317.274.505.694.505 1.208 0 .523-.154.935-.445 1.235-.395.42-1.038.634-1.766.634zm.103-2.966c-.326 0-.575.026-.703.06v2.246c.162.043.368.06.617.06.9 0 1.449-.437 1.449-1.234 0-.763-.54-1.132-1.363-1.132zm-5.894 3.652c0 .891-.661 1.663-2.024 1.663-.557 0-1.166-.163-1.474-.369l.188-.626c.335.206.823.378 1.338.378.763 0 1.209-.403 1.209-.986 0-.54-.309-.849-1.089-1.149-.943-.334-1.526-.823-1.526-1.637 0-.9.745-1.569 1.868-1.569.592 0 1.021.137 1.278.283l-.206.609a2.298 2.298 0 0 0-1.097-.275c-.789 0-1.089.472-1.089.866 0 .54.351.806 1.149 1.115.977.377 1.475.848 1.475 1.697zm-5.146-22.822l-6.391-10.98h-6.649v10.98h-1.907V32.651h8.72c3.65 0 7.344 2.208 7.344 6.427 0 3.739-2.853 5.671-5.427 6.238l6.512 11.199h-2.202zm-.789-17.437c0-3.105-2.818-4.519-5.438-4.519h-6.813v9.07h6.813c2.62 0 5.438-1.424 5.438-4.551zm-15.993 41.836h-.755v-5.143h-1.757v-.635h4.277v.635h-1.765v5.143zm-6.881-1.817h-2.049l-.6 1.817h-.771l1.963-5.778h.9l1.972 5.778h-.798l-.617-1.817zm-.72-2.246c-.128-.377-.214-.72-.3-1.055h-.017c-.086.344-.18.695-.291 1.046l-.566 1.672h1.74l-.566-1.663zM103.98 1.095L105.075 0a14.772 14.772 0 0 0 9.425 3.379c3.58 0 6.863-1.268 9.426-3.379l1.094 1.095-10.52 10.518-10.52-10.518zm9.475 33.464h-13.011v9.07h11.47v1.906h-11.47v9.073h13.011v1.907H98.538V32.651h14.917v1.908zM100.98 75.042c.72 0 1.175.154 1.372.258l-.18.608a2.72 2.72 0 0 0-1.166-.24c-1.355 0-2.255.866-2.255 2.383 0 1.414.815 2.323 2.221 2.323.454 0 .917-.095 1.217-.24l.154.591c-.274.138-.823.275-1.526.275-1.628 0-2.854-1.029-2.854-2.923 0-1.809 1.226-3.035 3.017-3.035zm-12.364 4.295c0 .891-.66 1.663-2.023 1.663-.557 0-1.166-.163-1.475-.369l.189-.626a2.64 2.64 0 0 0 1.337.378c.763 0 1.209-.403 1.209-.986 0-.54-.309-.849-1.089-1.149-.943-.334-1.526-.823-1.526-1.637 0-.9.746-1.569 1.869-1.569.592 0 1.02.137 1.277.283l-.205.609a2.303 2.303 0 0 0-1.098-.275c-.788 0-1.089.472-1.089.866 0 .54.352.806 1.149 1.115.978.377 1.475.848 1.475 1.697zm-10.678-4.201h.746v5.152h2.469v.626h-3.215v-5.778zm-8.253-18.621h-1.906V34.559h-8.226v-1.908H77.91v1.908h-8.225v21.956zm-9.319 19.256H58.6v5.143h-.755v-5.143h-1.757v-.635h4.278v.635zm-11.398-.635h3.12v.626h-2.375v1.826h2.246v.617h-2.246v2.083h2.504v.626h-3.249v-5.778zm-7.78 5.829c-.531 0-.977-.025-1.354-.068v-5.683c.454-.069.994-.12 1.586-.12 1.071 0 1.834.248 2.34.72.514.471.814 1.14.814 2.074 0 .943-.291 1.714-.831 2.246-.54.54-1.432.831-2.555.831zm.266-5.28c-.386 0-.677.034-.874.077v4.561c.188.034.463.042.754.042 1.594 0 2.46-.891 2.46-2.451.009-1.363-.763-2.229-2.34-2.229zM24.44 36.528v19.987h-1.906V32.651h1.689l12.798 19.987V32.651h1.904v23.864h-1.688L24.44 36.528zM0 32.651h1.907v23.864H0V32.651zm66.217 42.485l1.972 5.778h-.798l-.617-1.817h-2.048l-.6 1.817h-.772l1.963-5.778h.9zm.403 3.378l-.566-1.663c-.128-.377-.214-.72-.3-1.055h-.017c-.086.344-.18.695-.291 1.046l-.566 1.672h1.74zm6.589 2.4h-.746v-5.778h.746v5.778zm36.597-5.349c.292.257.455.651.455 1.097 0 .763-.48 1.269-1.089 1.475v.026c.446.153.711.565.849 1.165.188.806.325 1.363.445 1.586h-.771c-.094-.163-.223-.66-.386-1.38-.171-.797-.48-1.097-1.157-1.123h-.703v2.503h-.746v-5.7c.377-.078.917-.12 1.432-.12.797 0 1.311.145 1.671.471zm-2.357 2.28h.763c.797 0 1.303-.437 1.303-1.097 0-.746-.54-1.072-1.329-1.08-.36 0-.617.035-.737.068v2.109zm10.411-2.083h-2.374v1.826h2.246v.617h-2.246v2.083h2.503v.626h-3.249v-5.778h3.12v.626zm23.341 0h-2.374v1.826h2.246v.617h-2.246v2.083h2.503v.626h-3.249v-5.778h3.12v.626zm35.902-.72c.721 0 1.175.154 1.372.258l-.18.608a2.712 2.712 0 0 0-1.165-.24c-1.355 0-2.255.866-2.255 2.383 0 1.414.814 2.323 2.22 2.323.454 0 .918-.095 1.217-.24l.155.591c-.275.138-.823.275-1.526.275-1.629 0-2.855-1.029-2.855-2.923 0-1.809 1.226-3.035 3.017-3.035zm8.844.72h-2.375v1.826h2.246v.617h-2.246v2.083h2.504v.626h-3.25v-5.778h3.121v.626z" class="cls-1"/></svg>