<svg xmlns="http://www.w3.org/2000/svg" xmlns:xlink="http://www.w3.org/1999/xlink" preserveAspectRatio="xMidYMid" width="229" height="81" viewBox="0 0 229 81">
  <defs>
    <style>
      .cls-1 {
        fill: #fff;
        fill-rule: evenodd;
      }
    </style>
  </defs>
  <path d="M226.944,56.515 L224.256,49.305 L214.342,49.305 L211.656,56.515 L209.633,56.515 L218.521,32.651 L220.079,32.651 L229.000,56.515 L226.944,56.515 ZM219.316,36.017 L215.071,47.399 L223.560,47.399 L219.316,36.017 ZM186.806,56.515 L180.415,45.535 L173.764,45.535 L173.764,56.515 L171.859,56.515 L171.859,32.651 L180.578,32.651 C184.228,32.651 187.922,34.859 187.922,39.078 C187.922,42.817 185.068,44.749 182.492,45.316 L189.005,56.515 L186.806,56.515 ZM186.014,39.078 C186.014,35.973 183.196,34.559 180.578,34.559 L173.764,34.559 L173.764,43.629 L180.578,43.629 C183.196,43.629 186.014,42.205 186.014,39.078 ZM168.869,79.097 L166.820,79.097 L166.220,80.914 L165.449,80.914 L167.412,75.136 L168.312,75.136 L170.284,80.914 L169.486,80.914 L168.869,79.097 ZM168.149,76.851 C168.021,76.474 167.935,76.131 167.849,75.796 L167.832,75.796 C167.746,76.140 167.652,76.491 167.541,76.842 L166.975,78.514 L168.715,78.514 L168.149,76.851 ZM159.966,78.651 C159.743,78.651 159.537,78.642 159.366,78.600 L159.366,80.914 L158.620,80.914 L158.620,75.205 C158.980,75.145 159.451,75.094 160.051,75.094 C160.789,75.094 161.329,75.265 161.672,75.574 C161.989,75.848 162.177,76.268 162.177,76.782 C162.177,77.305 162.023,77.717 161.732,78.017 C161.337,78.437 160.694,78.651 159.966,78.651 ZM160.069,75.685 C159.743,75.685 159.494,75.711 159.366,75.745 L159.366,77.991 C159.528,78.034 159.734,78.051 159.983,78.051 C160.883,78.051 161.432,77.614 161.432,76.817 C161.432,76.054 160.892,75.685 160.069,75.685 ZM154.175,79.337 C154.175,80.228 153.514,81.000 152.151,81.000 C151.594,81.000 150.985,80.837 150.677,80.631 L150.865,80.005 C151.200,80.211 151.688,80.383 152.203,80.383 C152.966,80.383 153.412,79.980 153.412,79.397 C153.412,78.857 153.103,78.548 152.323,78.248 C151.380,77.914 150.797,77.425 150.797,76.611 C150.797,75.711 151.542,75.042 152.665,75.042 C153.257,75.042 153.686,75.179 153.943,75.325 L153.737,75.934 C153.548,75.831 153.163,75.659 152.640,75.659 C151.851,75.659 151.551,76.131 151.551,76.525 C151.551,77.065 151.902,77.331 152.700,77.640 C153.677,78.017 154.175,78.488 154.175,79.337 ZM149.029,56.515 L142.638,45.535 L135.989,45.535 L135.989,56.515 L134.082,56.515 L134.082,32.651 L142.802,32.651 C146.452,32.651 150.146,34.859 150.146,39.078 C150.146,42.817 147.293,44.749 144.719,45.316 L151.231,56.515 L149.029,56.515 ZM148.240,39.078 C148.240,35.973 145.422,34.559 142.802,34.559 L135.989,34.559 L135.989,43.629 L142.802,43.629 C145.422,43.629 148.240,42.205 148.240,39.078 ZM132.247,80.914 L131.492,80.914 L131.492,75.771 L129.735,75.771 L129.735,75.136 L134.012,75.136 L134.012,75.771 L132.247,75.771 L132.247,80.914 ZM125.366,79.097 L123.317,79.097 L122.717,80.914 L121.946,80.914 L123.909,75.136 L124.809,75.136 L126.781,80.914 L125.983,80.914 L125.366,79.097 ZM124.646,76.851 C124.518,76.474 124.432,76.131 124.346,75.796 L124.329,75.796 C124.243,76.140 124.149,76.491 124.038,76.842 L123.472,78.514 L125.212,78.514 L124.646,76.851 ZM103.980,1.095 L105.075,0.000 C107.637,2.111 110.921,3.379 114.500,3.379 C118.080,3.379 121.363,2.111 123.926,0.000 L125.020,1.095 L114.500,11.613 L103.980,1.095 ZM113.455,34.559 L100.444,34.559 L100.444,43.629 L111.914,43.629 L111.914,45.535 L100.444,45.535 L100.444,54.608 L113.455,54.608 L113.455,56.515 L98.538,56.515 L98.538,32.651 L113.455,32.651 L113.455,34.559 ZM100.980,75.042 C101.700,75.042 102.155,75.196 102.352,75.300 L102.172,75.908 C101.889,75.771 101.486,75.668 101.006,75.668 C99.651,75.668 98.751,76.534 98.751,78.051 C98.751,79.465 99.566,80.374 100.972,80.374 C101.426,80.374 101.889,80.279 102.189,80.134 L102.343,80.725 C102.069,80.863 101.520,81.000 100.817,81.000 C99.189,81.000 97.963,79.971 97.963,78.077 C97.963,76.268 99.189,75.042 100.980,75.042 ZM88.616,79.337 C88.616,80.228 87.956,81.000 86.593,81.000 C86.036,81.000 85.427,80.837 85.118,80.631 L85.307,80.005 C85.641,80.211 86.130,80.383 86.644,80.383 C87.407,80.383 87.853,79.980 87.853,79.397 C87.853,78.857 87.544,78.548 86.764,78.248 C85.821,77.914 85.238,77.425 85.238,76.611 C85.238,75.711 85.984,75.042 87.107,75.042 C87.699,75.042 88.127,75.179 88.384,75.325 L88.179,75.934 C87.990,75.831 87.604,75.659 87.081,75.659 C86.293,75.659 85.992,76.131 85.992,76.525 C85.992,77.065 86.344,77.331 87.141,77.640 C88.119,78.017 88.616,78.488 88.616,79.337 ZM77.938,75.136 L78.684,75.136 L78.684,80.288 L81.153,80.288 L81.153,80.914 L77.938,80.914 L77.938,75.136 ZM69.685,56.515 L67.779,56.515 L67.779,34.559 L59.553,34.559 L59.553,32.651 L77.910,32.651 L77.910,34.559 L69.685,34.559 L69.685,56.515 ZM60.366,75.771 L58.600,75.771 L58.600,80.914 L57.845,80.914 L57.845,75.771 L56.088,75.771 L56.088,75.136 L60.366,75.136 L60.366,75.771 ZM48.968,75.136 L52.088,75.136 L52.088,75.762 L49.713,75.762 L49.713,77.588 L51.959,77.588 L51.959,78.205 L49.713,78.205 L49.713,80.288 L52.217,80.288 L52.217,80.914 L48.968,80.914 L48.968,75.136 ZM41.188,80.965 C40.657,80.965 40.211,80.940 39.834,80.897 L39.834,75.214 C40.288,75.145 40.828,75.094 41.420,75.094 C42.491,75.094 43.254,75.342 43.760,75.814 C44.274,76.285 44.574,76.954 44.574,77.888 C44.574,78.831 44.283,79.602 43.743,80.134 C43.203,80.674 42.311,80.965 41.188,80.965 ZM41.454,75.685 C41.068,75.685 40.777,75.719 40.580,75.762 L40.580,80.323 C40.768,80.357 41.043,80.365 41.334,80.365 C42.928,80.365 43.794,79.474 43.794,77.914 C43.803,76.551 43.031,75.685 41.454,75.685 ZM24.440,36.528 L24.440,56.515 L22.534,56.515 L22.534,32.651 L24.223,32.651 L37.021,52.638 L37.021,32.651 L38.925,32.651 L38.925,56.515 L37.237,56.515 L24.440,36.528 ZM0.000,32.651 L1.907,32.651 L1.907,56.515 L0.000,56.515 L0.000,32.651 ZM66.217,75.136 L68.189,80.914 L67.391,80.914 L66.774,79.097 L64.726,79.097 L64.126,80.914 L63.354,80.914 L65.317,75.136 L66.217,75.136 ZM66.620,78.514 L66.054,76.851 C65.926,76.474 65.840,76.131 65.754,75.796 L65.737,75.796 C65.651,76.140 65.557,76.491 65.446,76.842 L64.880,78.514 L66.620,78.514 ZM73.209,80.914 L72.463,80.914 L72.463,75.136 L73.209,75.136 L73.209,80.914 ZM109.806,75.565 C110.098,75.822 110.261,76.216 110.261,76.662 C110.261,77.425 109.781,77.931 109.172,78.137 L109.172,78.163 C109.618,78.316 109.883,78.728 110.021,79.328 C110.209,80.134 110.346,80.691 110.466,80.914 L109.695,80.914 C109.601,80.751 109.472,80.254 109.309,79.534 C109.138,78.737 108.829,78.437 108.152,78.411 L107.449,78.411 L107.449,80.914 L106.703,80.914 L106.703,75.214 C107.080,75.136 107.620,75.094 108.135,75.094 C108.932,75.094 109.446,75.239 109.806,75.565 ZM107.449,77.845 L108.212,77.845 C109.009,77.845 109.515,77.408 109.515,76.748 C109.515,76.002 108.975,75.676 108.186,75.668 C107.826,75.668 107.569,75.703 107.449,75.736 L107.449,77.845 ZM117.860,75.762 L115.486,75.762 L115.486,77.588 L117.732,77.588 L117.732,78.205 L115.486,78.205 L115.486,80.288 L117.989,80.288 L117.989,80.914 L114.740,80.914 L114.740,75.136 L117.860,75.136 L117.860,75.762 ZM141.201,75.762 L138.827,75.762 L138.827,77.588 L141.073,77.588 L141.073,78.205 L138.827,78.205 L138.827,80.288 L141.330,80.288 L141.330,80.914 L138.081,80.914 L138.081,75.136 L141.201,75.136 L141.201,75.762 ZM177.103,75.042 C177.824,75.042 178.278,75.196 178.475,75.300 L178.295,75.908 C178.013,75.771 177.610,75.668 177.130,75.668 C175.775,75.668 174.875,76.534 174.875,78.051 C174.875,79.465 175.689,80.374 177.095,80.374 C177.549,80.374 178.013,80.279 178.312,80.134 L178.467,80.725 C178.192,80.863 177.644,81.000 176.941,81.000 C175.312,81.000 174.086,79.971 174.086,78.077 C174.086,76.268 175.312,75.042 177.103,75.042 ZM185.947,75.762 L183.572,75.762 L183.572,77.588 L185.818,77.588 L185.818,78.205 L183.572,78.205 L183.572,80.288 L186.076,80.288 L186.076,80.914 L182.826,80.914 L182.826,75.136 L185.947,75.136 L185.947,75.762 Z" class="cls-1"/>
</svg>
